<svg xmlns="http://www.w3.org/2000/svg" xmlns:xlink="http://www.w3.org/1999/xlink" width="400px" height="400px" viewBox="0 0 140 140" class="bleu clair">
  <defs>
    <style>.sombre #picto-x-1, .sombre #picto-x-1 path, .sombre #picto-x-1 ellipse, .sombre #picto-x-1 rect, .sombre #picto-x-1 line, .sombre #picto-x-1 rect, .sombre #picto-x-1 g,#picto-x-1, #picto-x-1 path, #picto-x-1 ellipse, #picto-x-1 rect, #picto-x-1 line, #picto-x-1 rect, #picto-x-1 g{fill: #373CF5 !important;}.sombre #picto-x-2, .sombre #picto-x-2 path, .sombre #picto-x-2 ellipse, .sombre #picto-x-2 rect, .sombre #picto-x-2 line, .sombre #picto-x-2 rect, .sombre #picto-x-2 g,#picto-x-2, #picto-x-2 path, #picto-x-2 ellipse, #picto-x-2 rect, #picto-x-2 line, #picto-x-2 rect, #picto-x-2 g {fill: #6877ff !important;}.sombre #picto-ligne, .sombre #picto-ligne path, .sombre #picto-ligne ellipse, .sombre #picto-ligne rect, .sombre #picto-ligne line, .sombre #picto-ligne rect, .sombre #picto-ligne g,#picto-ligne, #picto-ligne path, #picto-ligne ellipse, #picto-ligne rect, #picto-ligne line, #picto-ligne rect, #picto-ligne g {fill: none;stroke: #222222;stroke-linecap: round;stroke-linejoin: round;stroke-width: 4px;}.clair #picto-x-1, .clair #picto-x-1 path, .clair #picto-x-1 ellipse, .clair #picto-x-1 rect, .clair #picto-x-1 line, .clair #picto-x-1 rect, .clair #picto-x-1 g{fill: #6877ff;}.clair #picto-x-2, .clair #picto-x-2 path, .clair #picto-x-2 ellipse, .clair #picto-x-2 rect, .clair #picto-x-2 line, .clair #picto-x-2 rect, .clair #picto-x-2 g {fill: #0000CC !important;}.clair #picto-ligne, .clair #picto-ligne path, .clair #picto-ligne ellipse, .clair #picto-ligne rect, .clair #picto-ligne line, .clair #picto-ligne rect, .clair #picto-ligne g {fill: none;stroke: #ffffff;stroke-linecap: round;stroke-linejoin: round;stroke-width: 4px;}.bleu #picto-x-1, .bleu #picto-x-1 path, .bleu #picto-x-1 ellipse, .bleu #picto-x-1 rect, .bleu #picto-x-1 line, .bleu #picto-x-1 rect, .bleu #picto-x-1 g,.sombre.bleu #picto-x-1, .sombre.bleu #picto-x-1 path, .sombre.bleu #picto-x-1 ellipse, .sombre.bleu #picto-x-1 rect, .sombre.bleu #picto-x-1 line, .sombre.bleu #picto-x-1 rect, .sombre.bleu #picto-x-1 g {fill: #373CF5 !important;}.bleu #picto-x-2, .bleu #picto-x-2 path, .bleu #picto-x-2 ellipse, .bleu #picto-x-2 rect, .bleu #picto-x-2 line, .bleu #picto-x-2 rect, .bleu #picto-x-2 g,.sombre.bleu #picto-x-2, .sombre.bleu #picto-x-2 path, .sombre.bleu #picto-x-2 ellipse, .sombre.bleu #picto-x-2 rect, .sombre.bleu #picto-x-2 line, .sombre.bleu #picto-x-2 rect, .sombre.bleu #picto-x-2 g {fill: #6877FF !important;}.clair.bleu #picto-x-1, .clair.bleu #picto-x-1 path, .clair.bleu #picto-x-1 ellipse, .clair.bleu #picto-x-1 rect, .clair.bleu #picto-x-1 line, .clair.bleu #picto-x-1 rect, .clair.bleu #picto-x-1 g {fill: #6877FF !important;}.clair.bleu #picto-x-2, .clair.bleu #picto-x-2 path, .clair.bleu #picto-x-2 ellipse, .clair.bleu #picto-x-2 rect, .clair.bleu #picto-x-2 line, .clair.bleu #picto-x-2 rect, .clair.bleu #picto-x-2 g {fill: #0000CC !important;}.cyan #picto-x-1, .cyan #picto-x-1 path, .cyan #picto-x-1 ellipse, .cyan #picto-x-1 rect, .cyan #picto-x-1 line, .cyan #picto-x-1 rect, .cyan #picto-x-1 g,.sombre.cyan #picto-x-1, .sombre.cyan #picto-x-1 path, .sombre.cyan #picto-x-1 ellipse, .sombre.cyan #picto-x-1 rect, .sombre.cyan #picto-x-1 line, .sombre.cyan #picto-x-1 rect, .sombre.cyan #picto-x-1 g {fill: #00ABE0 !important;}.cyan #picto-x-2, .cyan #picto-x-2 path, .cyan #picto-x-2 ellipse, .cyan #picto-x-2 rect, .cyan #picto-x-2 line, .cyan #picto-x-2 rect, .cyan #picto-x-2 g,.sombre.cyan #picto-x-2, .sombre.cyan #picto-x-2 path, .sombre.cyan #picto-x-2 ellipse, .sombre.cyan #picto-x-2 rect, .sombre.cyan #picto-x-2 line, .sombre.cyan #picto-x-2 rect, .sombre.cyan #picto-x-2 g {fill: #67C4E8 !important;}.clair.cyan #picto-x-1, .clair.cyan #picto-x-1 path, .clair.cyan #picto-x-1 ellipse, .clair.cyan #picto-x-1 rect, .clair.cyan #picto-x-1 line, .clair.cyan #picto-x-1 rect, .clair.cyan #picto-x-1 g {fill: #67C4E8 !important;}.clair.cyan #picto-x-2, .clair.cyan #picto-x-2 path, .clair.cyan #picto-x-2 ellipse, .clair.cyan #picto-x-2 rect, .clair.cyan #picto-x-2 line, .clair.cyan #picto-x-2 rect, .clair.cyan #picto-x-2 g {fill: #007EA5 !important;}.turquoise #picto-x-1, .turquoise #picto-x-1 path, .turquoise #picto-x-1 ellipse, .turquoise #picto-x-1 rect, .turquoise #picto-x-1 line, .turquoise #picto-x-1 rect, .turquoise #picto-x-1 g,.sombre.turquoise #picto-x-1, .sombre.turquoise #picto-x-1 path, .sombre.turquoise #picto-x-1 ellipse, .sombre.turquoise #picto-x-1 rect, .sombre.turquoise #picto-x-1 line, .sombre.turquoise #picto-x-1 rect, .sombre.turquoise #picto-x-1 g {fill: #07C9C3 !important;}.turquoise #picto-x-2, .turquoise #picto-x-2 path, .turquoise #picto-x-2 ellipse, .turquoise #picto-x-2 rect, .turquoise #picto-x-2 line, .turquoise #picto-x-2 rect, .turquoise #picto-x-2 g,.sombre.turquoise #picto-x-2, .sombre.turquoise #picto-x-2 path, .sombre.turquoise #picto-x-2 ellipse, .sombre.turquoise #picto-x-2 rect, .sombre.turquoise #picto-x-2 line, .sombre.turquoise #picto-x-2 rect, .sombre.turquoise #picto-x-2 g {fill: #54DED9 !important;}.clair.turquoise #picto-x-1, .clair.turquoise #picto-x-1 path, .clair.turquoise #picto-x-1 ellipse, .clair.turquoise #picto-x-1 rect, .clair.turquoise #picto-x-1 line, .clair.turquoise #picto-x-1 rect, .clair.turquoise #picto-x-1 g {fill: #54DED9 !important;}.clair.turquoise #picto-x-2, .clair.turquoise #picto-x-2 path, .clair.turquoise #picto-x-2 ellipse, .clair.turquoise #picto-x-2 rect, .clair.turquoise #picto-x-2 line, .clair.turquoise #picto-x-2 rect, .clair.turquoise #picto-x-2 g {fill: #13ABA6 !important;}.vert #picto-x-1, .vert #picto-x-1 path, .vert #picto-x-1 ellipse, .vert #picto-x-1 rect, .vert #picto-x-1 line, .vert #picto-x-1 rect, .vert #picto-x-1 g,.sombre.vert #picto-x-1, .sombre.vert #picto-x-1 path, .sombre.vert #picto-x-1 ellipse, .sombre.vert #picto-x-1 rect, .sombre.vert #picto-x-1 line, .sombre.vert #picto-x-1 rect, .sombre.vert #picto-x-1 g {fill: #4AA528 !important;}.vert #picto-x-2, .vert #picto-x-2 path, .vert #picto-x-2 ellipse, .vert #picto-x-2 rect, .vert #picto-x-2 line, .vert #picto-x-2 rect, .vert #picto-x-2 g,.sombre.vert #picto-x-2, .sombre.vert #picto-x-2 path, .sombre.vert #picto-x-2 ellipse, .sombre.vert #picto-x-2 rect, .sombre.vert #picto-x-2 line, .sombre.vert #picto-x-2 rect, .sombre.vert #picto-x-2 g {fill: #9BCE7A !important;}.clair.vert #picto-x-1, .clair.vert #picto-x-1 path, .clair.vert #picto-x-1 ellipse, .clair.vert #picto-x-1 rect, .clair.vert #picto-x-1 line, .clair.vert #picto-x-1 rect, .clair.vert #picto-x-1 g {fill: #9BCE7A !important;}.clair.vert #picto-x-2, .clair.vert #picto-x-2 path, .clair.vert #picto-x-2 ellipse, .clair.vert #picto-x-2 rect, .clair.vert #picto-x-2 line, .clair.vert #picto-x-2 rect, .clair.vert #picto-x-2 g {fill: #3C7F20 !important;}.chartreuse #picto-x-1, .chartreuse #picto-x-1 path, .chartreuse #picto-x-1 ellipse, .chartreuse #picto-x-1 rect, .chartreuse #picto-x-1 line, .chartreuse #picto-x-1 rect, .chartreuse #picto-x-1 g,.sombre.chartreuse #picto-x-1, .sombre.chartreuse #picto-x-1 path, .sombre.chartreuse #picto-x-1 ellipse, .sombre.chartreuse #picto-x-1 rect, .sombre.chartreuse #picto-x-1 line, .sombre.chartreuse #picto-x-1 rect, .sombre.chartreuse #picto-x-1 g {fill: #9ABA00 !important;}.chartreuse #picto-x-2, .chartreuse #picto-x-2 path, .chartreuse #picto-x-2 ellipse, .chartreuse #picto-x-2 rect, .chartreuse #picto-x-2 line, .chartreuse #picto-x-2 rect, .chartreuse #picto-x-2 g,.sombre.chartreuse #picto-x-2, .sombre.chartreuse #picto-x-2 path, .sombre.chartreuse #picto-x-2 ellipse, .sombre.chartreuse #picto-x-2 rect, .sombre.chartreuse #picto-x-2 line, .sombre.chartreuse #picto-x-2 rect, .sombre.chartreuse #picto-x-2 g {fill: #BED06B !important;}.clair.chartreuse #picto-x-1, .clair.chartreuse #picto-x-1 path, .clair.chartreuse #picto-x-1 ellipse, .clair.chartreuse #picto-x-1 rect, .clair.chartreuse #picto-x-1 line, .clair.chartreuse #picto-x-1 rect, .clair.chartreuse #picto-x-1 g {fill: #BED06B !important;}.clair.chartreuse #picto-x-2, .clair.chartreuse #picto-x-2 path, .clair.chartreuse #picto-x-2 ellipse, .clair.chartreuse #picto-x-2 rect, .clair.chartreuse #picto-x-2 line, .clair.chartreuse #picto-x-2 rect, .clair.chartreuse #picto-x-2 g {fill: #799200 !important;}.jaune #picto-x-1, .jaune #picto-x-1 path, .jaune #picto-x-1 ellipse, .jaune #picto-x-1 rect, .jaune #picto-x-1 line, .jaune #picto-x-1 rect, .jaune #picto-x-1 g,.sombre.jaune #picto-x-1, .sombre.jaune #picto-x-1 path, .sombre.jaune #picto-x-1 ellipse, .sombre.jaune #picto-x-1 rect, .sombre.jaune #picto-x-1 line, .sombre.jaune #picto-x-1 rect, .sombre.jaune #picto-x-1 g {fill: #FFBA31 !important;}.jaune #picto-x-2, .jaune #picto-x-2 path, .jaune #picto-x-2 ellipse, .jaune #picto-x-2 rect, .jaune #picto-x-2 line, .jaune #picto-x-2 rect, .jaune #picto-x-2 g,.sombre.jaune #picto-x-2, .sombre.jaune #picto-x-2 path, .sombre.jaune #picto-x-2 ellipse, .sombre.jaune #picto-x-2 rect, .sombre.jaune #picto-x-2 line, .sombre.jaune #picto-x-2 rect, .sombre.jaune #picto-x-2 g {fill: #FFD788 !important;}.clair.jaune #picto-x-1, .clair.jaune #picto-x-1 path, .clair.jaune #picto-x-1 ellipse, .clair.jaune #picto-x-1 rect, .clair.jaune #picto-x-1 line, .clair.jaune #picto-x-1 rect, .clair.jaune #picto-x-1 g {fill: #FFD788 !important;}.clair.jaune #picto-x-2, .clair.jaune #picto-x-2 path, .clair.jaune #picto-x-2 ellipse, .clair.jaune #picto-x-2 rect, .clair.jaune #picto-x-2 line, .clair.jaune #picto-x-2 rect, .clair.jaune #picto-x-2 g {fill: #EAA10F !important;}.orange #picto-x-1, .orange #picto-x-1 path, .orange #picto-x-1 ellipse, .orange #picto-x-1 rect, .orange #picto-x-1 line, .orange #picto-x-1 rect, .orange #picto-x-1 g,.sombre.orange #picto-x-1, .sombre.orange #picto-x-1 path, .sombre.orange #picto-x-1 ellipse, .sombre.orange #picto-x-1 rect, .sombre.orange #picto-x-1 line, .sombre.orange #picto-x-1 rect, .sombre.orange #picto-x-1 g {fill: #FF791F !important;}.orange #picto-x-2, .orange #picto-x-2 path, .orange #picto-x-2 ellipse, .orange #picto-x-2 rect, .orange #picto-x-2 line, .orange #picto-x-2 rect, .orange #picto-x-2 g,.sombre.orange #picto-x-2, .sombre.orange #picto-x-2 path, .sombre.orange #picto-x-2 ellipse, .sombre.orange #picto-x-2 rect, .sombre.orange #picto-x-2 line, .sombre.orange #picto-x-2 rect, .sombre.orange #picto-x-2 g {fill: #FFAF73 !important;}.clair.orange #picto-x-1, .clair.orange #picto-x-1 path, .clair.orange #picto-x-1 ellipse, .clair.orange #picto-x-1 rect, .clair.orange #picto-x-1 line, .clair.orange #picto-x-1 rect, .clair.orange #picto-x-1 g {fill: #FFAF73 !important;}.clair.orange #picto-x-2, .clair.orange #picto-x-2 path, .clair.orange #picto-x-2 ellipse, .clair.orange #picto-x-2 rect, .clair.orange #picto-x-2 line, .clair.orange #picto-x-2 rect, .clair.orange #picto-x-2 g {fill: #BF4D00 !important;}.rouge #picto-x-1, .rouge #picto-x-1 path, .rouge #picto-x-1 ellipse, .rouge #picto-x-1 rect, .rouge #picto-x-1 line, .rouge #picto-x-1 rect, .rouge #picto-x-1 g,.sombre.rouge #picto-x-1, .sombre.rouge #picto-x-1 path, .sombre.rouge #picto-x-1 ellipse, .sombre.rouge #picto-x-1 rect, .sombre.rouge #picto-x-1 line, .sombre.rouge #picto-x-1 rect, .sombre.rouge #picto-x-1 g {fill: #E33232 !important;}.rouge #picto-x-2, .rouge #picto-x-2 path, .rouge #picto-x-2 ellipse, .rouge #picto-x-2 rect, .rouge #picto-x-2 line, .rouge #picto-x-2 rect, .rouge #picto-x-2 g,.sombre.rouge #picto-x-2, .sombre.rouge #picto-x-2 path, .sombre.rouge #picto-x-2 ellipse, .sombre.rouge #picto-x-2 rect, .sombre.rouge #picto-x-2 line, .sombre.rouge #picto-x-2 rect, .sombre.rouge #picto-x-2 g {fill: #FF8484 !important;}.clair.rouge #picto-x-1, .clair.rouge #picto-x-1 path, .clair.rouge #picto-x-1 ellipse, .clair.rouge #picto-x-1 rect, .clair.rouge #picto-x-1 line, .clair.rouge #picto-x-1 rect, .clair.rouge #picto-x-1 g {fill: #FF8484 !important;}.clair.rouge #picto-x-2, .clair.rouge #picto-x-2 path, .clair.rouge #picto-x-2 ellipse, .clair.rouge #picto-x-2 rect, .clair.rouge #picto-x-2 line, .clair.rouge #picto-x-2 rect, .clair.rouge #picto-x-2 g {fill: #AF1B1B !important;}.rose #picto-x-1, .rose #picto-x-1 path, .rose #picto-x-1 ellipse, .rose #picto-x-1 rect, .rose #picto-x-1 line, .rose #picto-x-1 rect, .rose #picto-x-1 g,.sombre.rose #picto-x-1, .sombre.rose #picto-x-1 path, .sombre.rose #picto-x-1 ellipse, .sombre.rose #picto-x-1 rect, .sombre.rose #picto-x-1 line, .sombre.rose #picto-x-1 rect, .sombre.rose #picto-x-1 g {fill: #E52E97 !important;}.rose #picto-x-2, .rose #picto-x-2 path, .rose #picto-x-2 ellipse, .rose #picto-x-2 rect, .rose #picto-x-2 line, .rose #picto-x-2 rect, .rose #picto-x-2 g,.sombre.rose #picto-x-2, .sombre.rose #picto-x-2 path, .sombre.rose #picto-x-2 ellipse, .sombre.rose #picto-x-2 rect, .sombre.rose #picto-x-2 line, .sombre.rose #picto-x-2 rect, .sombre.rose #picto-x-2 g {fill: #EA94C1 !important;}.clair.rose #picto-x-1, .clair.rose #picto-x-1 path, .clair.rose #picto-x-1 ellipse, .clair.rose #picto-x-1 rect, .clair.rose #picto-x-1 line, .clair.rose #picto-x-1 rect, .clair.rose #picto-x-1 g {fill: #EA94C1 !important;}.clair.rose #picto-x-2, .clair.rose #picto-x-2 path, .clair.rose #picto-x-2 ellipse, .clair.rose #picto-x-2 rect, .clair.rose #picto-x-2 line, .clair.rose #picto-x-2 rect, .clair.rose #picto-x-2 g {fill: #C11F84 !important;}.violet #picto-x-1, .violet #picto-x-1 path, .violet #picto-x-1 ellipse, .violet #picto-x-1 rect, .violet #picto-x-1 line, .violet #picto-x-1 rect, .violet #picto-x-1 g,.sombre.violet #picto-x-1, .sombre.violet #picto-x-1 path, .sombre.violet #picto-x-1 ellipse, .sombre.violet #picto-x-1 rect, .sombre.violet #picto-x-1 line, .sombre.violet #picto-x-1 rect, .sombre.violet #picto-x-1 g {fill: #A518E2 !important;}.violet #picto-x-2, .violet #picto-x-2 path, .violet #picto-x-2 ellipse, .violet #picto-x-2 rect, .violet #picto-x-2 line, .violet #picto-x-2 rect, .violet #picto-x-2 g,.sombre.violet #picto-x-2, .sombre.violet #picto-x-2 path, .sombre.violet #picto-x-2 ellipse, .sombre.violet #picto-x-2 rect, .sombre.violet #picto-x-2 line, .sombre.violet #picto-x-2 rect, .sombre.violet #picto-x-2 g {fill: #AB79D3 !important;}.clair.violet #picto-x-1, .clair.violet #picto-x-1 path, .clair.violet #picto-x-1 ellipse, .clair.violet #picto-x-1 rect, .clair.violet #picto-x-1 line, .clair.violet #picto-x-1 rect, .clair.violet #picto-x-1 g {fill: #AB79D3 !important;}.clair.violet #picto-x-2, .clair.violet #picto-x-2 path, .clair.violet #picto-x-2 ellipse, .clair.violet #picto-x-2 rect, .clair.violet #picto-x-2 line, .clair.violet #picto-x-2 rect, .clair.violet #picto-x-2 g {fill: #700BA2 !important;}.brun #picto-x-1, .brun #picto-x-1 path, .brun #picto-x-1 ellipse, .brun #picto-x-1 rect, .brun #picto-x-1 line, .brun #picto-x-1 rect, .brun #picto-x-1 g,.sombre.brun #picto-x-1, .sombre.brun #picto-x-1 path, .sombre.brun #picto-x-1 ellipse, .sombre.brun #picto-x-1 rect, .sombre.brun #picto-x-1 line, .sombre.brun #picto-x-1 rect, .sombre.brun #picto-x-1 g {fill: #8E4C20 !important;}.brun #picto-x-2, .brun #picto-x-2 path, .brun #picto-x-2 ellipse, .brun #picto-x-2 rect, .brun #picto-x-2 line, .brun #picto-x-2 rect, .brun #picto-x-2 g,.sombre.brun #picto-x-2, .sombre.brun #picto-x-2 path, .sombre.brun #picto-x-2 ellipse, .sombre.brun #picto-x-2 rect, .sombre.brun #picto-x-2 line, .sombre.brun #picto-x-2 rect, .sombre.brun #picto-x-2 g {fill: #C18E6C !important;}.clair.brun #picto-x-1, .clair.brun #picto-x-1 path, .clair.brun #picto-x-1 ellipse, .clair.brun #picto-x-1 rect, .clair.brun #picto-x-1 line, .clair.brun #picto-x-1 rect, .clair.brun #picto-x-1 g {fill: #C18E6C !important;}.clair.brun #picto-x-2, .clair.brun #picto-x-2 path, .clair.brun #picto-x-2 ellipse, .clair.brun #picto-x-2 rect, .clair.brun #picto-x-2 line, .clair.brun #picto-x-2 rect, .clair.brun #picto-x-2 g {fill: #5B2E15 !important;}</style>
    <clipPath id="clip-trophee-2">
      <rect width="140" height="140"></rect>
    </clipPath>
  </defs>
  <g id="trophee-2" class="cls-1">
    <g id="グループ_459" data-name="グループ 459">
      <g id="picto-x-2" transform="translate(9.973 6.96)">
        <path id="パス_1552" data-name="パス 1552" class="cls-2" d="M465.285,797.88a60.213,60.213,0,0,0,.487-7.557c0-.507-.026-1.009-.039-1.514-.313.277-.654.547-1.011.812a17.757,17.757,0,0,0,.138-8.874c.044-.027.081-.061.125-.088a59.908,59.908,0,0,0-118.283.226l.056.034a17.545,17.545,0,0,0-.153,6.736c-.191-.164-.379-.33-.564-.5-.055,1.05-.085,2.107-.085,3.171a60.235,60.235,0,0,0,.433,7.114c-.01.256-.038.506-.038.765a18.176,18.176,0,0,0,2.031,8.348c-.083-.069-.167-.135-.25-.206a60.021,60.021,0,0,0,24.956,34.117s.658.314,1.723.808c-.061.059-.122.124-.182.181a59.6,59.6,0,0,0,9.538,4.714c-.09-.3-.165-.611-.235-.921a47.343,47.343,0,0,0,5.294,1.845c-.154.222-.312.439-.475.65a59.782,59.782,0,0,0,33.526.19l0,.005.037-.016c.987-.282,1.969-.58,2.935-.911-.051-.075-.1-.155-.145-.232l5.646-2.311c-.02.126-.036.253-.059.379,1.293-.59,2.554-1.236,3.8-1.91l.122-.05.241-.153c.636-.351,1.279-.694,1.9-1.069l-.1-.086,2.583-1.654c-.021.065-.039.132-.06.2.785-.526,1.552-1.074,2.309-1.636l.047-.03.049-.043a60.131,60.131,0,0,0,7.627-6.753l2.188-1.937.2-.719a59.794,59.794,0,0,0,11.26-20.176c-.1.066-.22.129-.327.2a18.155,18.155,0,0,0,2.823-9.723C465.356,798.815,465.321,798.347,465.285,797.88Zm-44.312,24.151H392.178v-11.3h28.794Zm-19.88-11.887v-18.93H412.06v18.93Zm24.262-36.955a17.134,17.134,0,0,1-17.134,17.134h-3.288A17.134,17.134,0,0,1,387.8,773.188V752.766h37.557Z" transform="translate(-345.955 -730.415)"></path>
      </g>
      <g id="picto-x-1" transform="translate(51.815 29.311)">
        <path id="パス_1575" data-name="パス 1575" class="cls-3" d="M412.125,784a18.778,18.778,0,0,1-18.779-18.779V751.7H385.8v18.779c0,3.872,2.372,12.477,4.381,15.466,3.371,5.017,7.9,3.311,14.4,3.311h0c5.657,0,12.8-2.513,16.246-6.471A32.023,32.023,0,0,1,412.125,784Z" transform="translate(-385.797 -751.698)"></path>
      </g>
      <g id="picto-ligne" transform="translate(6.956 29.311)">
        <path id="パス_1553" data-name="パス 1553" class="cls-4" d="M453.891,770.04s9.14,71.233-35.261,82.361" transform="translate(-339.289 -750.777)"></path>
        <path id="パス_1554" data-name="パス 1554" class="cls-4" d="M424.086,846.351c-1.95-1.723-4.468-4.534-4.978-7.865-.515-3.36,1.062-6.8,2.411-9.019,1.952,1.718,4.485,4.53,5,7.886.51,3.327-1.031,6.734-2.372,8.957l-.057.041" transform="translate(-339.27 -747.794)"></path>
        <path id="パス_1555" data-name="パス 1555" class="cls-4" d="M436.353,837.6c-2.286-1.241-5.372-3.413-6.617-6.546-1.257-3.157-.494-6.861.322-9.33,2.288,1.236,5.388,3.406,6.64,6.562,1.244,3.128.508,6.793-.3,9.261l-.047.054" transform="translate(-338.765 -748.182)"></path>
        <path id="パス_1556" data-name="パス 1556" class="cls-4" d="M443.922,824.67c-2.287-1.241-5.373-3.413-6.618-6.546-1.257-3.157-.493-6.862.322-9.33,2.288,1.236,5.389,3.406,6.641,6.562,1.244,3.128.508,6.793-.3,9.261l-.046.054" transform="translate(-338.385 -748.832)"></path>
        <path id="パス_1557" data-name="パス 1557" class="cls-4" d="M450.1,807.8c-2.5-.731-5.971-2.2-7.85-5-1.895-2.822-1.929-6.6-1.653-9.188,2.5.726,5.985,2.192,7.875,5.013,1.877,2.795,1.93,6.533,1.662,9.116l-.035.062" transform="translate(-338.193 -749.594)"></path>
        <path id="パス_1558" data-name="パス 1558" class="cls-4" d="M452.249,790.031c-2.559-.471-6.166-1.58-8.322-4.17-2.174-2.612-2.6-6.37-2.587-8.97,2.558.465,6.178,1.566,8.348,4.178,2.153,2.588,2.59,6.3,2.588,8.9l-.027.065" transform="translate(-338.149 -750.433)"></path>
        <path id="パス_1559" data-name="パス 1559" class="cls-4" d="M453.989,790.03l-.028-.064c0-2.6.435-6.311,2.589-8.9,2.17-2.612,5.789-3.714,8.348-4.179.009,2.6-.413,6.358-2.588,8.97-2.155,2.592-5.761,3.7-8.321,4.17" transform="translate(-337.516 -750.433)"></path>
        <path id="パス_1560" data-name="パス 1560" class="cls-4" d="M452.974,807.75l-.028-.065c0-2.6.435-6.31,2.589-8.9,2.17-2.612,5.79-3.712,8.348-4.179.009,2.6-.413,6.359-2.587,8.971-2.156,2.591-5.762,3.7-8.322,4.17" transform="translate(-337.567 -749.544)"></path>
        <path id="パス_1561" data-name="パス 1561" class="cls-4" d="M446.371,825.516l-.011-.069c.645-2.516,1.992-6,4.723-7.973,2.752-1.989,6.531-2.154,9.125-1.968-.637,2.521-1.983,6.055-4.74,8.043-2.733,1.973-6.5,2.149-9.1,1.967" transform="translate(-337.897 -748.498)"></path>
        <path id="パス_1562" data-name="パス 1562" class="cls-4" d="M439.2,838.82l0-.07c1.1-2.354,3.059-5.536,6.1-6.971,3.071-1.45,6.817-.92,9.332-.26-1.089,2.36-3.059,5.588-6.133,7.037-3.049,1.438-6.786.92-9.3.265" transform="translate(-338.257 -747.724)"></path>
        <path id="パス_1563" data-name="パス 1563" class="cls-4" d="M425.506,847.3l.038-.06c2.149-1.458,5.468-3.178,8.819-2.845,3.38.332,6.32,2.713,8.14,4.57-2.147,1.465-5.5,3.223-8.878,2.887-3.354-.333-6.294-2.7-8.118-4.553" transform="translate(-338.944 -747.047)"></path>
        <path id="パス_1564" data-name="パス 1564" class="cls-4" d="M355.287,769.8s-9.139,71.233,35.263,82.361" transform="translate(-342.508 -750.789)"></path>
        <path id="パス_1565" data-name="パス 1565" class="cls-4" d="M383.735,846.114l-.058-.041c-1.341-2.223-2.883-5.63-2.372-8.957.511-3.356,3.045-6.168,5-7.886,1.349,2.222,2.927,5.66,2.411,9.019-.509,3.331-3.028,6.142-4.977,7.865" transform="translate(-341.168 -747.806)"></path>
        <path id="パス_1566" data-name="パス 1566" class="cls-4" d="M371.5,837.368l-.046-.052c-.808-2.468-1.544-6.134-.3-9.262,1.253-3.156,4.353-5.326,6.64-6.562.816,2.469,1.579,6.173.323,9.33-1.247,3.133-4.331,5.3-6.618,6.546" transform="translate(-341.706 -748.194)"></path>
        <path id="パス_1567" data-name="パス 1567" class="cls-4" d="M363.931,824.433l-.047-.054c-.807-2.468-1.543-6.133-.3-9.261,1.253-3.156,4.352-5.326,6.64-6.562.816,2.468,1.579,6.173.322,9.33-1.246,3.133-4.331,5.3-6.617,6.546" transform="translate(-342.086 -748.844)"></path>
        <path id="パス_1568" data-name="パス 1568" class="cls-4" d="M357.82,807.563l-.034-.062c-.269-2.582-.215-6.321,1.661-9.116,1.89-2.821,5.378-4.287,7.875-5.013.276,2.585.242,6.367-1.653,9.188-1.879,2.8-5.353,4.271-7.85,5" transform="translate(-342.35 -749.606)"></path>
        <path id="パス_1569" data-name="パス 1569" class="cls-4" d="M355.73,789.794l-.028-.065c0-2.6.435-6.31,2.589-8.9,2.17-2.612,5.79-3.712,8.348-4.178.009,2.6-.413,6.358-2.587,8.97-2.156,2.591-5.762,3.7-8.322,4.17" transform="translate(-342.448 -750.445)"></path>
        <path id="パス_1570" data-name="パス 1570" class="cls-4" d="M353.99,789.793c-2.559-.469-6.166-1.578-8.322-4.17-2.174-2.612-2.6-6.37-2.587-8.97,2.558.465,6.178,1.567,8.348,4.179,2.153,2.587,2.59,6.3,2.588,8.9l-.027.064" transform="translate(-343.082 -750.445)"></path>
        <path id="パス_1571" data-name="パス 1571" class="cls-4" d="M355.005,807.513c-2.559-.471-6.166-1.58-8.322-4.17-2.174-2.612-2.6-6.37-2.587-8.971,2.558.466,6.178,1.567,8.348,4.179,2.153,2.588,2.59,6.3,2.588,8.9l-.027.065" transform="translate(-343.031 -749.556)"></path>
        <path id="パス_1572" data-name="パス 1572" class="cls-4" d="M361.747,825.279c-2.6.182-6.365.006-9.1-1.967-2.756-1.988-4.1-5.523-4.74-8.043,2.594-.186,6.375-.021,9.126,1.968,2.729,1.97,4.077,5.457,4.722,7.973l-.01.069" transform="translate(-342.839 -748.51)"></path>
        <path id="パス_1573" data-name="パス 1573" class="cls-4" d="M368.994,838.583c-2.518.655-6.255,1.173-9.3-.265-3.074-1.449-5.045-4.678-6.134-7.037,2.516-.66,6.262-1.19,9.332.26,3.045,1.436,5.009,4.617,6.1,6.971l0,.07" transform="translate(-342.556 -747.736)"></path>
        <path id="パス_1574" data-name="パス 1574" class="cls-4" d="M382.763,847.065c-1.825,1.856-4.765,4.22-8.119,4.553-3.382.336-6.731-1.422-8.878-2.887,1.82-1.858,4.762-4.239,8.14-4.57,3.35-.332,6.67,1.387,8.819,2.845l.039.06" transform="translate(-341.943 -747.059)"></path>
        <path id="長方形_268" data-name="長方形 268" class="cls-4" d="M0,0H37.557a0,0,0,0,1,0,0V25.135A12.422,12.422,0,0,1,25.135,37.557H12.422A12.422,12.422,0,0,1,0,25.135V0A0,0,0,0,1,0,0Z" transform="translate(44.86)"></path>
        <rect id="長方形_269" data-name="長方形 269" class="cls-4" width="10.967" height="19.522" transform="translate(58.155 38.448)"></rect>
        <rect id="長方形_270" data-name="長方形 270" class="cls-4" width="28.794" height="12.201" transform="translate(49.241 57.97)"></rect>
        <path id="パス_1576" data-name="パス 1576" class="cls-4" d="M383.6,775.642a9.742,9.742,0,1,1,0-19.483" transform="translate(-341.537 -751.474)"></path>
        <path id="パス_1577" data-name="パス 1577" class="cls-4" d="M424.322,756.159a9.742,9.742,0,0,1,0,19.483" transform="translate(-339.004 -751.474)"></path>
      </g>
    </g>
  </g>
</svg>
